<svg version="1.1" id="Layer_1" xmlns="http://www.w3.org/2000/svg" xmlns:xlink="http://www.w3.org/1999/xlink" x="0px" y="0px"
	 width="100%" viewBox="0 0 500 500" enable-background="new 0 0 500 500" xml:space="preserve">
<path fill="#000000" opacity="1.000000" stroke="none" 
	d="
M323.000000,501.000000 
	C216.666687,501.000000 110.833359,500.978760 5.000181,501.095428 
	C1.576332,501.099213 0.903033,500.423889 0.905298,497.000031 
	C1.013776,333.000122 1.013757,169.000153 0.905338,5.000257 
	C0.903075,1.576981 1.575761,0.903020 4.999866,0.905285 
	C168.999756,1.013775 332.999725,1.013760 496.999634,0.905354 
	C500.422638,0.903091 501.096985,1.575410 501.094727,4.999746 
	C500.986206,168.999634 500.986237,332.999603 501.094604,496.999512 
	C501.096893,500.422272 500.426025,501.105103 497.000214,501.097076 
	C439.167053,500.961365 381.333466,501.000000 323.000000,501.000000 
z"/>
<path fill="#38B6FF" opacity="1.000000" stroke="none" 
	d="
M37.268814,201.229095 
	C47.029434,195.041855 57.665169,192.403717 68.562080,192.198898 
	C79.839615,191.986908 90.812111,194.549622 100.572845,200.826797 
	C103.609360,202.779617 105.125809,202.558563 105.071701,198.240051 
	C104.837578,179.552948 107.785484,161.455124 117.056503,144.949600 
	C131.200073,119.769310 152.086685,103.459312 180.523697,96.827454 
	C188.122375,95.055351 195.826233,93.978874 203.339783,94.232086 
	C227.638977,95.050995 249.285767,102.868126 267.567505,119.792786 
	C278.932404,130.314041 286.519531,143.161774 294.047272,156.258270 
	C299.300568,165.397720 304.672607,174.469055 309.893707,183.626617 
	C310.380524,184.480515 310.799530,185.869690 311.582275,185.619156 
	C312.524200,185.317657 313.468140,184.170975 313.864655,183.173050 
	C315.172760,179.880875 315.827118,176.277130 317.455627,173.172348 
	C329.379089,150.440048 347.973785,138.509247 373.942841,137.908875 
	C391.952148,137.492477 406.688843,144.395050 419.070099,156.722778 
	C426.854126,164.473129 431.469116,174.558792 436.964447,183.937668 
	C446.470245,200.161087 456.039093,216.353836 465.181091,232.782257 
	C473.764343,248.206573 483.955170,262.790985 490.863953,279.073822 
	C495.949951,291.060669 496.411102,303.720154 493.168579,316.508270 
	C488.530029,334.802155 477.848938,348.451447 461.272675,356.996338 
	C449.688141,362.968109 437.266418,365.257050 423.902344,363.223450 
	C408.851685,360.933136 396.436005,354.411041 386.110260,343.557037 
	C380.108521,337.248230 376.590088,329.250549 371.971954,322.000183 
	C371.268890,320.896301 371.390137,318.696625 369.328857,319.086914 
	C367.437744,319.445038 367.151733,321.308044 367.029388,322.885284 
	C365.749390,339.387604 359.410553,354.145264 349.815857,367.178070 
	C335.080872,387.193146 315.388214,400.063812 290.701477,405.078522 
	C274.256531,408.419037 258.003876,407.869263 242.182770,402.811615 
	C229.462616,398.745300 217.902832,392.297913 207.609924,383.345856 
	C194.996307,372.375458 187.155487,358.231537 179.021927,344.158508 
	C177.807327,342.056946 176.316696,340.066711 175.437241,337.834503 
	C174.694824,335.950134 173.491898,336.038086 171.969101,335.971924 
	C169.914352,335.882690 170.277618,337.254211 169.934189,338.544495 
	C163.225403,363.749908 146.506790,379.240143 121.610107,384.740021 
	C96.476456,390.292297 69.799248,379.191101 56.028183,355.980804 
	C46.434719,339.811615 37.112041,323.481781 27.662169,307.227325 
	C23.913235,300.778900 20.384169,294.187653 16.347046,287.924438 
	C1.452493,264.816742 4.494853,231.351334 24.225105,212.271103 
	C28.240795,208.387711 31.801397,203.969910 37.268814,201.229095 
z"/>
</svg>